<svg xmlns="http://www.w3.org/2000/svg" viewBox="0 0 100 100" width="100" height="100">
  <rect width="100" height="100" rx="12" fill="#0f172a"/>
  <rect x="3" y="3" width="94" height="94" rx="10" fill="none" stroke="#a78bfa" stroke-width="3"/>
  <rect x="46" y="8" width="8" height="12" fill="#a78bfa" transform="rotate(0 50 50)"/><rect x="46" y="8" width="8" height="12" fill="#a78bfa" transform="rotate(45 50 50)"/><rect x="46" y="8" width="8" height="12" fill="#a78bfa" transform="rotate(90 50 50)"/><rect x="46" y="8" width="8" height="12" fill="#a78bfa" transform="rotate(135 50 50)"/><rect x="46" y="8" width="8" height="12" fill="#a78bfa" transform="rotate(180 50 50)"/><rect x="46" y="8" width="8" height="12" fill="#a78bfa" transform="rotate(225 50 50)"/><rect x="46" y="8" width="8" height="12" fill="#a78bfa" transform="rotate(270 50 50)"/><rect x="46" y="8" width="8" height="12" fill="#a78bfa" transform="rotate(315 50 50)"/><circle cx="50" cy="50" r="20" fill="none" stroke="#a78bfa" stroke-width="5"/><circle cx="50" cy="50" r="8" fill="#a78bfa"/>
</svg>